<?xml version="1.0" encoding="UTF-8"?>
<svg class="_2rWrR _3kXwb _3Xpfh" preserveAspectRatio="xMidYMid meet" viewBox="0 0 120 24" style="fill: currentcolor;"><path fill="currentColor" fill-rule="evenodd" d="M595.030896,21.2930062 C593.508634,21.2930062 592.061767,20.6129174 591.072058,19.6313583 C590.691492,19.2539269 590.386322,18.8764955 590.082348,18.423103 L589.930361,18.2723678 L584.827432,9.58788421 C583.685736,11.4002672 583,13.5900817 583,15.9318182 C583,22.0490559 587.567983,27.0328125 593.507438,27.7117143 L597.61946,20.6129174 C596.858329,21.0663099 595.944014,21.2930062 595.030896,21.2930062 L595.030896,21.2930062 Z M597.848039,11.3254931 C599.370301,12.3070522 600.436602,13.9687 600.436602,15.9318182 C600.436602,16.3092496 600.36001,16.7626421 600.284615,17.1400735 L600.284615,17.2160346 C600.208035,17.8201622 599.980653,18.3483289 599.675483,18.8776824 L594.498344,27.8636364 L594.955501,27.8636364 C601.579495,27.8636364 606.986398,22.5772225 606.986398,15.9318182 C606.985201,14.2701704 606.680031,12.6844836 606.070886,11.3254931 L597.848039,11.3254931 Z M590.689099,15.9318182 C590.689099,18.2735547 592.593123,20.2366729 595.0297,20.2366729 C597.390881,20.2366729 599.370301,18.3483289 599.370301,15.9318182 C599.370301,13.5153075 597.390881,11.5510024 595.030896,11.6269635 C592.669715,11.6269635 590.689099,13.5900817 590.689099,15.9318182 L590.689099,15.9318182 Z M589.549796,16.0813665 L589.549796,15.8546702 C589.549796,13.2114633 591.529215,10.9456879 594.042383,10.5682564 L594.118975,10.5682564 C594.576133,10.4175212 595.032093,10.4175212 595.48925,10.4175212 L605.616123,10.4175212 C603.63431,6.64320691 599.598879,4 595.030896,4 C591.072058,4 587.56918,5.88834405 585.361182,8.83302135 L589.473204,15.7798961 C589.549796,15.8558571 589.549796,16.0065923 589.549796,16.0813665 L589.549796,16.0813665 Z M693.636856,15.6303478 L691.96141,15.2529164 C691.276871,15.1021812 690.819714,14.7995239 690.819714,14.2713573 C690.819714,13.5912685 691.582041,13.2138371 692.495159,13.2138371 C693.332882,13.2138371 694.170605,13.5153075 694.474579,14.3461314 L695.844854,13.7420037 C695.311105,12.4589743 694.017433,11.7788855 692.570554,11.7788855 C690.819714,11.7788855 689.22086,12.7616315 689.22086,14.2713573 C689.22086,15.781083 690.74433,16.3852107 691.50545,16.6119069 L693.25629,16.9893383 C694.16942,17.2160346 694.397999,17.6682401 694.397999,18.1216326 C694.397999,18.8764955 693.712263,19.329888 692.722553,19.329888 C691.732831,19.329888 690.895109,18.8017213 690.437951,17.7442012 L688.991084,18.3483289 C689.448242,19.5565842 690.667715,20.7660264 692.647146,20.7660264 C694.626565,20.7660264 695.996841,19.6325452 695.996841,18.1228076 C695.996841,17.0652994 695.312301,16.0077792 693.636856,15.6303478 L693.636856,15.6303478 Z M675.589913,19.3310748 C674.219638,19.3310748 672.924757,18.0468585 672.924757,16.2344755 C672.924757,14.3461314 674.219638,13.1378761 675.589913,13.1378761 C676.731609,13.1378761 677.569332,13.7420037 677.949898,14.7235628 L679.396777,14.1194352 C678.863027,12.9111798 677.721331,11.7029245 675.665308,11.7029245 C673.076756,11.7029245 671.249312,13.6660427 671.249312,16.2332886 C671.249312,18.8005344 673.076744,20.7648395 675.743096,20.7660264 C677.799119,20.7660264 679.017384,19.5577711 679.549936,18.3495157 L678.103081,17.7453881 C677.645924,18.7269472 676.808201,19.3310748 675.589913,19.3310748 L675.589913,19.3310748 Z M683.737365,19.329888 C682.899643,19.329888 681.986525,18.8764955 681.986525,17.9708974 C681.986525,17.2148477 682.671064,16.3092496 684.34651,16.3092496 C685.716785,16.3092496 686.402521,16.8374162 686.402521,16.8374162 C686.402521,18.2723678 685.107641,19.329888 683.737365,19.329888 L683.737365,19.329888 Z M684.194535,11.7776987 C681.986537,11.7776987 680.99563,13.061915 680.691669,13.8167779 L682.138524,14.4209056 C682.443694,13.6660427 683.281417,13.2126502 684.194535,13.2126502 C685.336231,13.2126502 686.402533,13.9675131 686.402533,15.2517295 L686.402533,15.5543868 C686.097362,15.3276905 685.259639,15.0262201 684.117943,15.0262201 C682.137327,15.0262201 680.386474,16.0825534 680.386474,17.9708974 C680.386474,19.7073194 681.833341,20.7648395 683.585379,20.7636526 C685.032246,20.7636526 685.945363,20.0087898 686.402521,19.3287011 L686.479113,19.3287011 L686.479113,20.5369564 L688.001387,20.5369564 L688.001387,15.4024647 C688.001387,12.985954 686.250546,11.7776987 684.194535,11.7776987 L684.194535,11.7776987 Z M657.77156,11.7776987 C656.477877,11.7776987 655.411564,12.4577874 654.802431,13.4393465 C654.346459,12.3818263 653.432156,11.7776987 652.061881,11.7776987 C650.995568,11.7776987 649.853883,12.3818263 649.396714,13.2126502 L649.320122,13.2126502 L649.320122,12.0043949 L647.79786,12.0043949 L647.79786,12.0055818 L647.720071,12.0055818 L647.720071,20.5393302 L649.318925,20.5393302 L649.318925,15.857044 C649.318925,14.4980535 650.232055,13.2138371 651.526923,13.2138371 C652.745223,13.2138371 653.430947,13.8179648 653.430947,15.5543868 L653.430947,20.5393302 L655.029813,20.5393302 L655.029813,15.857044 C655.029813,14.4980535 655.942919,13.2138371 657.237811,13.2138371 C658.4561,13.2138371 659.141836,13.8179648 659.141836,15.5543868 L659.141836,20.5369564 L660.817281,20.5369564 L660.817281,15.3265036 C660.817281,13.2126502 659.82756,11.7776987 657.77156,11.7776987 L657.77156,11.7776987 Z M663.710991,15.2517295 C664.016162,14.0434741 664.929292,13.2126502 666.14758,13.2126502 C667.975012,13.2126502 668.584168,14.4968666 668.660748,15.2517295 L663.710991,15.2517295 Z M666.14758,11.7029245 C663.63562,11.7029245 661.960174,13.8167779 661.960174,16.2332886 C661.960174,18.8005344 663.711003,20.7648395 666.373765,20.8384268 C668.354381,20.8384268 669.572669,19.7061325 670.105222,18.4978772 L668.658355,17.8937495 C668.202394,18.9512696 667.211476,19.3287011 666.298382,19.3287011 C664.928107,19.3287011 663.634411,18.347142 663.557832,16.534759 L670.334985,16.534759 L670.334985,16.2332886 C670.334985,13.5153075 668.660748,11.7029245 666.14758,11.7029245 L666.14758,11.7029245 Z M617.949808,19.4070359 C616.579533,19.4070359 615.284641,18.1228195 615.284641,16.3104365 C615.284641,14.4220925 616.579533,13.2138371 617.949808,13.2138371 C619.091492,13.2138371 619.929215,13.8179648 620.309781,14.7995239 L621.756648,14.1194352 C621.222899,12.9111798 620.081202,11.7029245 618.025191,11.7029245 C615.436627,11.7029245 613.609195,13.6660427 613.609195,16.2332886 C613.609195,18.8005344 615.436627,20.7648395 618.10298,20.8419875 C620.158991,20.8419875 621.377279,19.6337321 621.909831,18.4254768 L620.462976,17.8213491 C620.005807,18.8029082 619.168084,19.4070359 617.949808,19.4070359 L617.949808,19.4070359 Z M627.390932,11.7776987 C626.172644,11.7776987 625.107539,12.4577874 624.650382,13.2126502 L624.573802,13.2126502 L624.650382,12.0043949 L624.650382,8.15293264 L623.051528,8.15293264 L623.051528,20.5393302 L624.650382,20.5393302 L624.650382,15.857044 C624.650382,14.4980535 625.564696,13.2138371 626.934972,13.2138371 C628.15326,13.2138371 629.066378,13.8179648 629.066378,15.5543868 L629.066378,20.5369564 L630.665244,20.5369564 L630.665244,15.3265036 C630.665244,13.2126502 629.59893,11.7776987 627.390932,11.7776987 L627.390932,11.7776987 Z M642.086984,19.329888 C640.640129,19.329888 639.269854,18.1975937 639.269854,16.2332886 C639.269854,14.2689835 640.640129,13.1366892 642.086984,13.1366892 C643.533851,13.1366892 644.904126,14.2701704 644.904126,16.2332886 C644.904126,18.1964068 643.533851,19.329888 642.086984,19.329888 L642.086984,19.329888 Z M642.086984,11.7029245 C639.49842,11.7029245 637.670988,13.6660427 637.670988,16.2332886 C637.670988,18.8005344 639.49842,20.7636526 642.086984,20.7636526 C644.675547,20.7636526 646.50298,18.8005344 646.50298,16.2332886 C646.50298,13.6660427 644.675547,11.7029245 642.086984,11.7029245 L642.086984,11.7029245 Z M701.629916,18.9524565 C701.401349,19.1031917 701.173968,19.1031917 700.868797,19.1031917 C700.107654,19.1031917 699.727089,18.7257603 699.727089,17.7442012 L699.727089,13.4393465 L701.7831,13.4393465 L701.7831,12.0043949 L699.727089,12.0043949 L699.727089,9.43714902 L698.128247,9.43714902 L698.128247,12.0043949 L696.605985,12.0043949 L696.605985,13.4393465 L698.128247,13.4393465 L698.128247,17.8949364 C698.128247,19.6313583 699.117956,20.6129174 700.867588,20.5381433 C701.401349,20.5381433 701.781915,20.4621823 702.162469,20.3114471 L701.629916,18.9524565 Z M636.452699,11.7776987 C635.538385,11.7776987 634.320097,12.3818263 633.939531,13.3633854 L633.862939,13.3633854 L633.862939,12.0043949 L632.340677,12.0043949 L632.340677,20.5381433 L634.016123,20.5381433 L634.016123,15.8558571 C634.016123,14.2689835 635.157819,13.3633854 636.224121,13.3633854 C636.529291,13.3633854 636.833265,13.4381596 637.061844,13.5141206 L637.670988,12.0043949 C637.290422,11.8536597 636.985252,11.7776987 636.452699,11.7776987 L636.452699,11.7776987 Z" transform="translate(-583 -4)"></path></svg>