<?xml version="1.0" encoding="UTF-8"?>
<svg class="_2rWrR _3kXwb _3Xpfh" preserveAspectRatio="xMidYMid meet" viewBox="0 0 75 17" style="fill: currentcolor;"><path fill="currentColor" fill-rule="evenodd" d="M75,23.9816532 L75,8.75 L72.1065272,8.75 L72.1065272,13.2483367 C71.2977067,12.4633317 70.1965978,12.0311744 68.8380544,12.0311744 C65.5219506,12.0311744 63.0018901,14.7260333 63.0018901,18.09937 C63.0018901,21.486996 65.5219506,24.2279738 68.8380544,24.2279738 C70.1965978,24.2279738 71.2977067,23.7592238 72.1065272,22.9742944 L72.1065272,23.9816532 L75,23.9816532 Z M69.1543095,21.4393649 C67.3730595,21.4393649 65.93188,19.9505544 65.93188,18.09937 C65.93188,16.2831905 67.3730595,14.7720766 69.1543095,14.7720766 C70.3380544,14.7720766 71.4613911,15.3584677 72.0238911,16.3308972 C72.0604083,16.400756 72.1065272,16.4945817 72.1065272,16.6120716 L72.1065272,19.588256 C72.1065272,19.647001 72.0715978,19.7519405 72.0477067,19.78687 C71.4979839,20.7942288 70.3729839,21.4393649 69.1543095,21.4393649 L69.1543095,21.4393649 Z M58.794254,23.9816532 L61.6893145,23.9816532 L61.6893145,12.2647177 L58.794254,12.2647177 L58.794254,23.9816532 Z M60.2482107,11.3749244 C61.1745968,11.3749244 61.9245212,10.6122228 61.9245212,9.6875 C61.9245212,8.75 61.1745968,8 60.2482107,8 C59.3234123,8 58.5734123,8.75 58.5734123,9.6875 C58.5734123,10.6122228 59.3234123,11.3749244 60.2482107,11.3749244 L60.2482107,11.3749244 Z M51.3548891,24.2167843 C54.7425151,24.2167843 57.4834173,21.486996 57.4834173,18.09937 C57.4834173,14.7260333 54.7425151,12.0311744 51.3548135,12.0311744 C47.9815524,12.0311744 45.2389869,14.7260333 45.2389869,18.09937 C45.2389869,21.486996 47.9815524,24.2167843 51.3548135,24.2167843 L51.3548891,24.2167843 Z M51.3548891,21.299496 C49.5974546,21.299496 48.1689768,19.8694304 48.1689768,18.09937 C48.1689768,16.3420111 49.5974546,14.9135333 51.3548891,14.9135333 C53.1360635,14.9135333 54.5550151,16.3420111 54.5550151,18.09937 C54.5550151,19.8694304 53.1360635,21.299496 51.3548891,21.299496 L51.3548891,21.299496 Z M42.2041331,23.9816532 L42.2041331,17.72437 C42.2041331,15.8732611 43.1764869,14.8897177 45.0275958,14.8897177 L45.0275958,12.0311744 C41.3015625,12.0311744 39.3105847,14.0110383 39.3105847,17.72437 L39.3105847,23.9816532 L42.2041331,23.9816532 Z M37.7756552,23.9816532 L37.7756552,8.75 L34.8805948,8.75 L34.8805948,13.2483367 C34.0734375,12.4633317 32.9706653,11.9946573 31.6121976,11.9946573 C28.2960181,11.9946573 25.7775454,14.7260333 25.7775454,18.09937 C25.7775454,21.486996 28.2960181,24.2167843 31.6121976,24.2167843 C32.9706653,24.2167843 34.0734375,23.7592238 34.8805948,22.9742944 L34.8805948,23.9816532 L37.7756552,23.9816532 Z M31.928377,21.4393649 C30.147127,21.4393649 28.7059476,19.9505544 28.7059476,18.09937 C28.7059476,16.2831905 30.147127,14.7720766 31.928377,14.7720766 C33.112122,14.7720766 34.237122,15.3584677 34.7995464,16.3308972 C34.8345514,16.400756 34.8805948,16.4945817 34.8805948,16.6120716 L34.8805948,19.5770665 C34.8805948,19.6359627 34.8456653,19.7519405 34.8234375,19.78687 C34.2720514,20.7942288 33.1470514,21.4393649 31.928377,21.4393649 L31.928377,21.4393649 Z M24.5699093,23.9816532 L24.5699093,17.6433216 C24.5699093,14.5258317 22.1451865,12.0311744 19.0515121,12.0311744 C15.9466482,12.0311744 13.5331149,14.5258317 13.5331149,17.6433216 L13.5331149,23.9816532 L16.4265877,23.9816532 L16.4265877,17.6433216 C16.4265877,16.1083921 17.5054687,14.9357611 19.0515121,14.9357611 C20.5864415,14.9357611 21.6764365,16.1083921 21.6764365,17.6433216 L21.6764365,23.9816532 L24.5699093,23.9816532 Z M11.9981855,23.9816532 L11.9981855,12.2647177 L9.1030494,12.2647177 L9.1030494,13.2483367 C8.29430444,12.4633317 7.19319556,12.0311744 5.83457661,12.0311744 C2.51847278,12.0311744 0,14.7260333 0,18.09937 C0,21.486996 2.51847278,24.2167843 5.83457661,24.2167843 C7.19319556,24.2167843 8.29430444,23.7592238 9.1030494,22.9742944 L9.1030494,23.9816532 L11.9981855,23.9816532 Z M6.15083165,21.4393649 C4.36958165,21.4393649 2.92840222,19.9505544 2.92840222,18.09937 C2.92840222,16.2831905 4.36958165,14.7720766 6.15083165,14.7720766 C7.33457661,14.7720766 8.51832157,15.3234627 9.02207661,16.3308972 C9.05700605,16.400756 9.1030494,16.4945817 9.1030494,16.6120716 L9.1030494,19.5643649 C9.1030494,19.6231855 9.06811996,19.7519405 9.04430444,19.78687 C8.49450605,20.7942288 7.36958165,21.4393649 6.15083165,21.4393649 L6.15083165,21.4393649 Z" transform="translate(0 -8)"></path></svg>