<?xml version="1.0" encoding="UTF-8"?>
<svg class="_2rWrR _3kXwb _1qHew" preserveAspectRatio="xMidYMid meet" viewBox="0 0 32 32" style="fill: currentcolor;"><path fill="currentColor" fill-rule="evenodd" d="M234,3.24443197 C234,1.45258167 235.458126,-2.94297972e-14 237.244432,7.53545886e-16 L262.755568,4.318171e-13 C264.547418,4.62094127e-13 266,1.45812607 266,3.24443197 L266,28.755568 C266,30.5474183 264.541874,32 262.755568,32 L237.244432,32 C235.452582,32 234,30.5418739 234,28.755568 L234,3.24443197 Z M246.110813,10.0740741 C245.648068,10.0938653 245.087638,10.3841367 244.748839,10.7799613 C244.449009,11.1296063 244.188344,11.6903579 244.260027,12.2247211 C244.77484,12.2643035 245.309203,11.9542409 245.628583,11.5650134 C245.947833,11.1691888 246.169463,10.6216314 246.110813,10.0740741 Z M249.916522,10.839335 L249.916522,12.0004205 L249.030261,12.0004205 L249.030261,12.8910258 L249.870841,12.8910258 L249.870841,17.8058479 C249.870841,18.9207539 250.353071,19.4749083 251.324113,19.4749083 C251.741177,19.4749083 252.151659,19.4221317 252.549238,19.3099814 L252.549238,18.4061819 C252.242892,18.4655556 252.01481,18.498541 251.85196,18.498541 C251.57168,18.498541 251.369664,18.4325702 251.258947,18.2874345 C251.148164,18.1422988 251.089514,17.898207 251.089514,17.5419649 L251.089514,12.8976229 L252.431939,12.8976229 L252.431939,12.0070175 L251.082998,12.0070175 L251.082998,10.3578143 L249.916522,10.839335 Z M258.199087,11.9938234 L256.543929,16.7964952 L256.283199,17.6013386 L256.048601,18.3995848 C255.800969,17.5089795 255.64457,16.9746163 255.58592,16.7898981 L253.989347,12.0004205 L252.699056,12.0004205 L255.338288,19.362758 L256.772011,19.362758 L259.482927,11.9938234 L258.199087,11.9938234 Z M244.338291,12.7656814 C243.973295,12.7656814 243.406414,12.3434684 242.813401,12.3566626 C242.031341,12.3632597 241.307996,12.8118609 240.903965,13.5243452 C240.631896,14.0003902 240.518311,14.5535551 240.517073,15.1226849 L240.517073,15.140563 C240.519289,16.2698506 240.961572,17.4588417 241.483945,18.2280608 C241.875007,18.7954094 242.337623,19.4353259 242.937217,19.4155346 C243.523713,19.3891463 243.745213,19.0329042 244.449009,19.0329042 C245.159386,19.0329042 245.35482,19.4155346 245.973899,19.4023405 C246.606012,19.3891463 247.003526,18.8217977 247.388072,18.2544491 C247.831137,17.6013386 248.013603,16.9614221 248.026636,16.9284367 C248.013603,16.9218397 246.801576,16.4468501 246.788477,15.0350757 C246.78196,13.854199 247.746486,13.2868504 247.792037,13.2604621 C247.251157,12.4622158 246.404061,12.3500655 246.104297,12.3368714 C246.055943,12.3319895 246.007655,12.3296806 245.959693,12.3296806 C245.296496,12.3296806 244.67859,12.7656814 244.338291,12.7656814 Z" transform="translate(-234)"></path></svg>