<?xml version="1.0" encoding="UTF-8"?>
<svg class="_2rWrR" preserveAspectRatio="xMidYMid meet" viewBox="0 0 20 20" style="fill: currentcolor;"><g fill="currentColor" fill-rule="evenodd"><path d="M10 0C7.284 0 6.944.012 5.877.06 4.813.11 4.087.278 3.45.525c-.658.256-1.216.598-1.772 1.153C1.123 2.234.78 2.792.525 3.45.278 4.086.11 4.812.06 5.877.012 6.944 0 7.284 0 10s.012 3.057.06 4.123c.05 1.065.218 1.79.465 2.428.256.658.598 1.216 1.153 1.77.556.558 1.114.9 1.772 1.155.636.248 1.363.417 2.427.464 1.067.048 1.407.06 4.123.06s3.057-.012 4.123-.06c1.064-.048 1.79-.217 2.428-.465.658-.255 1.216-.597 1.77-1.154.558-.554.9-1.112 1.155-1.77.248-.636.417-1.362.464-2.427.048-1.066.06-1.407.06-4.123s-.012-3.056-.06-4.123c-.048-1.065-.217-1.79-.465-2.427-.255-.658-.597-1.216-1.154-1.772-.554-.555-1.112-.897-1.77-1.153C15.915.278 15.188.11 14.124.06 13.057.012 12.716 0 10 0m0 2c2.606 0 2.914.01 3.943.057.952.044 1.468.202 1.812.336.455.177.78.39 1.123.73.34.34.552.667.73 1.12.133.346.292.862.335 1.814C17.99 7.087 18 7.394 18 10s-.01 2.914-.057 3.943c-.043.952-.202 1.468-.335 1.812-.178.455-.39.78-.73 1.123-.343.34-.668.552-1.123.73-.344.133-.86.292-1.812.335-1.03.047-1.337.057-3.943.057s-2.914-.01-3.943-.057c-.952-.043-1.468-.202-1.813-.335-.454-.178-.78-.39-1.12-.73-.342-.343-.554-.668-.73-1.123-.135-.344-.293-.86-.337-1.812C2.01 12.913 2 12.606 2 10s.01-2.914.057-3.943c.044-.952.202-1.468.336-1.813.177-.454.39-.78.73-1.12.34-.342.667-.554 1.12-.73.346-.135.862-.293 1.814-.337C7.087 2.01 7.394 2 10 2"></path><path d="M10 13c-1.657 0-3-1.343-3-3 0-1.656 1.343-3 3-3s3 1.344 3 3c0 1.657-1.343 3-3 3m0-8c-2.76 0-5 2.24-5 5s2.24 5 5 5 5-2.24 5-5-2.24-5-5-5m6 0c0 .553-.447 1-1 1-.553 0-1-.447-1-1 0-.553.447-1 1-1 .553 0 1 .447 1 1"></path></g></svg>