<?xml version="1.0" encoding="UTF-8"?>
<svg class="_2rWrR _3kXwb _1qHew" preserveAspectRatio="xMidYMid meet" viewBox="0 0 32 32" style="fill: currentcolor;"><path fill="currentColor" fill-rule="evenodd" d="M128.933856,22.7181856 L128.934021,22.7183505 C126.170969,22.7183505 124.190103,21.1579381 124.077773,18.9266804 L124.815588,18.9266804 C124.928247,20.7561237 126.64668,22.0364536 128.990433,22.0364536 C131.277773,22.0364536 132.874474,20.7373196 132.874474,18.9827629 C132.874474,17.571134 131.922062,16.7595876 129.662598,16.1903505 L128.066062,15.7977732 C125.573691,15.161567 124.441979,14.1530722 124.441979,12.4641649 C124.441979,10.3627216 126.404041,8.84931959 128.860454,8.84931959 C131.399835,8.84931959 133.296082,10.3440825 133.380701,12.3236289 L132.642557,12.3236289 C132.539464,10.7084536 130.961897,9.53105155 128.841485,9.53105155 C126.813773,9.53105155 125.198433,10.7458969 125.198433,12.4455258 C125.198433,13.7915052 126.188289,14.5656082 128.353897,15.1066392 L129.858227,15.4898144 C132.463093,16.1339381 133.630928,17.1343505 133.630928,18.9265155 C133.630928,21.1577732 131.754639,22.7181856 128.933856,22.7181856 Z M117.569897,22.7183505 C113.889402,22.7183505 111.564289,20.038268 111.564289,15.7778144 C111.564289,11.5389691 113.900124,8.8483299 117.569897,8.8483299 C121.23967,8.8483299 123.574351,11.539134 123.574351,15.7778144 C123.574351,20.038433 121.249072,22.7183505 117.569897,22.7183505 Z M109.871918,9.99785567 C109.554392,9.99785567 109.291959,9.74614433 109.291959,9.42878351 C109.291959,9.10185567 109.553072,8.84882474 109.871918,8.84882474 C110.19868,8.84882474 110.458474,9.10053608 110.458474,9.42878351 C110.458474,9.74614433 110.19868,9.99785567 109.871918,9.99785567 Z M109.506227,22.5220619 L110.258887,22.5220619 L110.258887,12.4636701 L109.506227,12.4636701 L109.506227,22.5220619 Z M129.57732,0 L112.42268,0 C108.323216,0 105,3.32305155 105,7.42268041 L105,24.5773196 C105,28.6766186 108.323216,32 112.42268,32 L129.57732,32 C133.676784,32 137,28.6766186 137,24.5773196 L137,7.42268041 C137,3.32305155 133.676784,0 129.57732,0 Z M117.569897,9.54045361 L117.569897,9.54045361 C114.366433,9.54045361 112.321072,11.9592577 112.321072,15.7776495 C112.321072,19.5990103 114.37567,22.0272165 117.569897,22.0272165 C120.773526,22.0272165 122.818887,19.5990103 122.818887,15.7776495 C122.818887,11.9581031 120.773526,9.54045361 117.569897,9.54045361 Z" transform="translate(-105)"></path></svg>