<?xml version="1.0" encoding="UTF-8"?>
<svg class="_2rWrR _3mMiX" preserveAspectRatio="xMidYMid meet" viewBox="0 0 163 20" style="fill: currentcolor;"><path d="M18 20.82h5v-19.92h-5zm-13.38-19.92h-4.62v19.92h15v-4h-10.38zm32.08-.9a10.48 10.48 0 0 0-10.54 10.41 10.55 10.55 0 0 0 21.09 0 10.48 10.48 0 0 0-10.55-10.41zm0 16.33a5.93 5.93 0 1 1 6-5.93 6 6 0 0 1-6 5.93zm26.92-3.86l-8.26-11.47h-4.59v19.11h4.61v-11.48l8.75 11.48h4.1v-19.11h-4.6zm17.71-3.82c-1.68-.53-4.33-1.03-4.33-2.88 0-.95 1.11-1.37 2.69-1.37a13.89 13.89 0 0 1 6.55 1.8l.09.06v-4.26a23.34 23.34 0 0 0-6.56-1.27h-.55c-3.58 0-7.29 1.18-7.29 5.39 0 3.24 3.09 5.66 5.81 6.37 2.66 1 4.07 1 4.07 2.88 0 .84-.84 1.21-2.13 1.22a15 15 0 0 1-7.22-2.35l-.09-.06v4.21a18.46 18.46 0 0 0 6.91 2h.37c3.64 0 7.39-1.72 7.39-5.48.03-4.26-3.04-5.55-5.71-6.26zm28.67.68h-10.33v4h5.69a6 6 0 0 1-11.24-2.9 6 6 0 0 1 11.27-2.82v.06l3.64-2.75a10.57 10.57 0 0 0-19.46 5.56 10.48 10.48 0 0 0 10.55 10.41c5.83 0 10-4.67 10-10.41 0-.34 0-.69-.06-1zm8.28-8.33l-8.14 18.92h4.62l1.69-3.92h8.26l1.69 3.92h4.6l-8.12-18.92zm-.09 11l2.39-5.56 2.42 5.56zm10.64-7h6.17v15h4.61v-15h6.14v-4.1h-16.9zm33.44 11h-9.27v-3.6h8.8v-4h-8.8v-3.46h9.23l1.49-4h-15.3v19h15.33z"></path></svg>