<?xml version="1.0" encoding="UTF-8"?>
<svg class="_2rWrR" preserveAspectRatio="xMidYMid meet" viewBox="0 0 75 53" style="fill: currentcolor;"><path d="M28.79 36.948l-.532.717-.444.45-.442.536-.532.36-.442.807-.444.807-.265.27-.267.537-.355.54-.266.448-.265.538.088.18.177.18-.088.267-.177.45-.266.357-.087.45-.266.717-.266.536-.177.45v.45l-.088.537-.177.448-.265.447-.267.63-.265.358-.176.537v.27l.177-.27.178-.27.088-.178.267-.36.265-.358.356-.268.265-.358.175-.45.09-.358.176-.27.178-.358.354-.27.355-.537.443-.628.354-.448.178-.09.442-.36.356-.538.265-.537.354-.538.353-.63.355-.536.177-.537v-.897l-.09-.18v-.18l.09-.178v-.36l.177-.448.09-.358.087-.448.353-.718.09-.627.088-.36-.443.448-.088.18zM6.997 47.888L5.58 49.234l-1.683-.898h-.09l.888 1.793-1.418 1.256 1.86-.18L6.023 53l.355-1.973 1.948-.27-1.683-.896.355-1.972zm48.543-2.78l-.354-.628-.177-.268-.178-.27v-.627l-.088-.27-.178-.268-.53-.63-.532-.626-.532-.537-.532-.45-.443-.447-.353-.448-.444-.27.266.45.354.448.355.537.177.27.088.358v.54l.178.267.266.27.265.45.442.358.355.537.354.27.266.358.798.897.354.448.355.36.265.268.355.358-.532-.895-.62-.807zm-8.237 6.188l-.09-.18-.088-.18-.088-.358-.177-.27-.177-.358-.09-.448v-.268l-.087-.18v-.27l.088-.268.177-.09v-.268l-.087-.36-.177-.448-.178-.358-.354-.36-.266-.358-.266-.538-.176-.538-.177-.448-.18-.27-.265-.717-.177-.718-.265-.448-.09-.27-.088-.268.178-.27.176-.18v-.36l-.177-.447-.09-.358-.265-.36-.177-.268-.088-.358-.177-.27-.266-.45-.178-.357-.177-.45-.355-.538-.176-.447-.532-.628-.354-.45-.09-.178-.354-.448-.265-.538-.266-.36-.267-.537-.177-.27-.355-.628-.442-.628-.265-.448-.267-.448-.353-.45-.443-.627.886 2.87.09.36v.178l.088.36-.267.538-.176.358.177.718.444 1.346.266 1.165.265 1.076.355.896.71.807.442.36.532.268.265.27.354.627.442.808.355.627.355.897.443.626.443.808.178.718.354.627.267.627.352.807.177.448.266.717.265.538.267.448.09.358.176.27.177.36.177.178.177.268.09-.178.087-.36-.087-.268.088-.27-.087-.268zm-24.98-11.21l-.178-.09-.177.09-.354.36-.355.357-.355.36-.62.627-.62.628-.798.986-.53.628-.09.358-.707.987-2.216 3.498.62-.717.532-.718.354-.448.886-.987.53-.628.355-.358.533-.36.532-.538.975-1.435.53-.628.532-.987.532-.717.09-.27zm32.597 9.686l-.265-.45-.177-.447-.177-.27-.176-.447-.266-.27-.177-.538-.354-.45-.265-.447-.176-.448-.355-.54-.266-.357-.267-.358-.177-.36-.176-.358-.267-.36-.974-.895-.53-.45-.533-.447-.62-.718-.443-.448-.266-.27-.087-.358-.09-.627-.087-.27-.178-.18-.177-.36-.53-.536-.354-.45-.532-.626-.532-.54-.53-.538-.444-.448-.443-.538-.354-.358-.353-.45.177.54.177.268v.18l.178.09.266.448.177.45.355.626.266.538.356.808.353.627.53 1.077.356.628.265.628.267.448.266.54.265.447.266.27.354.358.443.448.445.54.265.267.177.36.266.27.266.088.442.09.354.268.443.54.53.447.444.628.53.54.71.716.974 1.166.53.717.533.717-.265-.63-.355-.535zm13.908-5.83l.443-1.883-1.504 1.255-1.596-.987.71 1.794-1.507 1.344 1.95-.18.708 1.795.444-1.882 1.95-.18-1.596-1.076zM4.163 45.108l1.948.18-1.504-1.256.885-1.795-1.77.898L2.3 41.88l.355 1.883-1.682.987 1.947.18.355 1.97.886-1.792zm68.446 4.008h-.888v-.808h.71c.265 0 .708 0 .708.36 0 .448-.178.448-.53.448zm1.06-.36c0-.27 0-.538-.264-.716-.266-.18-.533-.18-.797-.18h-1.42v2.96h.532v-1.255h.62l.62 1.255h.62l-.62-1.255c.444 0 .71-.27.71-.808zm-1.415 2.78c-1.152 0-2.126-.985-2.126-2.15 0-1.257.973-2.243 2.125-2.243 1.24 0 2.214.986 2.214 2.242 0 1.166-.976 2.152-2.215 2.152zm0-4.932c-1.418 0-2.66 1.256-2.66 2.78 0 1.436 1.242 2.69 2.66 2.69 1.505 0 2.745-1.254 2.745-2.69 0-1.524-1.24-2.78-2.745-2.78zm-47.11-24.296c0 .09.176.27.354.18 1.06-.538 1.415-1.615 1.947-2.51-.975-.27-2.037 1.254-2.303 2.33zm42.62 26.028h-.088l-1.683.898-1.418-1.346.355 1.973-1.682.988 1.95.268L65.55 53l.798-1.794 1.95.27-1.42-1.436.888-1.704zm-35.8-26.207c-.09.178 0 .448.177.357 1.15-.448 1.418-1.524 1.95-2.42-.976-.18-1.774 1.165-2.128 2.062zm22.322 1.793c-.354 0-1.062-.27-1.15-.628v-.45c-.62.45-1.24.808-1.95.54-.266-.18-.177-.54-.088-.807.265-.808.44-1.167.796-2.064-.09-.18-.266 0-.355 0-1.15.897-1.24 1.794-1.77 2.87h-1.152l.354-.628c-.354.36-.53.36-.974.54-.265.088-.62.357-.974.088-.177-.18-.09-.358-.177-.538-.532.45-1.152.897-1.86.538-.355-.18-.178-.628-.09-.897l.62-1.524c-.176.09-.53.18-.797.27-.53 1.165-1.417 2.33-2.835 2.42-.354-.09-.796-.448-.885-.807-.09-.09.09-.09 0-.09-.442.45-1.152.897-1.95.628-.354-.18-.176-.717-.087-1.076.354-.806.266-.717.708-1.613.178-.63-.53-.36-.62-.09-.796.986-.796 1.703-1.328 2.69-.354.09-.797 0-1.15 0 .442-.987.885-1.704 1.328-2.78 0-.09 0-.27-.09-.27-.62.09-.796.628-1.15 1.077l-.975 2.062h-.974c0-.268.09-.448.177-.628-.442.36-.974.808-1.68.628-.18-.18-.268-.448-.18-.717-.354.09-.62.45-.885.628-.354.09-.71.18-1.064.09-.53-.63-.088-1.435.266-1.974l.354-.447c-.265-.09-.62.18-.885-.09l-.177-.448c-.886.807-.975 1.793-1.506 2.87h-.975c0-.36.09-.27.266-.628-.618.45-1.15.897-1.948.538-.177-.18-.088-.45-.177-.627-.53.448-1.15.986-1.95.627-.265-.18-.353-.538-.176-.897.353-1.345 1.594-2.6 2.923-3.05.53-.088 1.152-.088 1.594.18l-1.33 2.69c0 .18 0 .36.178.45 1.418-.628 1.595-2.064 2.215-3.14h.974c0 .27-.265.54-.177.718.443-.36.886-.986 1.417-.897.178.448-.53.806-.266 1.254.62-.09 1.064-.717 1.595-.896.62-.36 1.418-.448 2.038-.18-.354.987-.885 1.884-1.328 2.87 0 .18 0 .27.177.27.62-.18.707-.718 1.15-1.076l1.152-2.064h.886c-.09.18-.177.36-.177.54.532-.36 1.064-.808 1.773-.54.177.18.177.36.266.54.53-.45 1.15-.898 1.86-.45.176.27 0 .45-.09.628-.354.896-.797 1.524-.975 2.422.09.178.266.09.355 0 1.15-.718.798-1.705 1.772-2.6.708-.54 1.506-.988 2.39-.54.356.27.267.718.356 1.076.62.09 1.15-.448 1.417-.986.266-.09.71-.09.974 0l-1.24 2.87c0 .09 0 .18.088.27 1.417-.63 1.506-1.973 2.126-3.14.354-.09.708 0 1.063 0-.355.986-.886 1.704-1.24 2.69 0 .18-.177.45.088.36 1.24-.718 1.683-1.794 2.215-3.05.354-.09.62 0 .975 0 0 .18-.178.45-.178.628.532-.448 1.152-.986 1.86-.718.355.27.178.718.09.987l-.976 2.062c0 .09.09.18.18.18 1.24-.538 1.416-1.704 2.036-2.78-.266 0-.443-.09-.62-.09-.177-.627.62-.27.797-.36l.798-1.613h.886l-.62 1.614c.178.09.444 0 .71 0 0 .18-.002.448-.178.538h.088-.088c-.174-.002-.42-.012-.797-.09l-1.15 2.6c0 .27-.18.63.176.81.71.088 1.063-.63 1.418-1.167h.62c-.71 1.254-1.24 1.793-2.127 1.793zm-36.585 2.33c-1.15.36-2.834.54-3.896-.18-.444-.267-.71-.985-.798-1.523-.09-.45 0-.807.265-1.166.178-.358.71-.358.976-.268.264.18.44.358.352.627-.088.45-.53.718-.53 1.256 0 .447.62.716.973.806.886.268 1.683.18 2.48-.36 2.835-2.42 2.304-6.724 5.76-8.43l.44-.088c-1.06 1.165-1.24 2.33-1.68 3.677 0 .09.353 0 .53 0 1.33-.54 2.125-1.705 2.037-3.05 0-.896-.708-1.703-1.505-1.973-2.303-.807-4.696-.358-6.29 1.435-.975 1.165-1.417 2.242-1.063 3.678.088.357.443.716.887.807.443.178.886.268 1.328 0 .71-.18-.797-1.615.975-1.615.177 0 .354.27.354.538.09.448-.177 1.077-.53 1.345-.8.538-1.86.808-2.836.538-.62-.18-1.24-.628-1.594-1.256-.442-.807-.265-2.33.266-3.05 1.33-2.24 3.81-3.406 6.29-3.496 1.948-.09 3.898.45 4.96 2.063.443.717.443 2.152-.088 2.868-.886 1.257-2.48 1.884-3.987 1.973-.354 2.154-2.037 4.127-4.075 4.843zM35.787 6.188c-16.3 0-29.498 13.362-29.498 29.864 0 5.38 1.416 10.492 3.896 14.885l2.746-2.96 2.658-3.497 3.1-3.407 6.29-7.355.71-.896.884-.18.532-.358 3.1-2.96 1.24-1.075 3.81-3.05.708-.36.886.18 1.063 1.076 1.86 1.794 1.417.36 2.215 1.882 2.835 2.69 1.77.717 2.393 1.704 1.95 2.33 2.745 3.857 2.126 2.333 1.683 2.422 1.24 1.255 1.152 1.524.796 1.255c2.48-4.127 3.19-9.417 3.19-14.168 0-16.502-13.2-29.864-29.5-29.864zm7.693 13.79c-.797.447-.974 1.074-1.328 1.882 0 .27-.267.627 0 .896.088.18.265.09.354 0 .708-.896 1.063-1.524 1.24-2.6 0-.18-.177-.27-.266-.18zm14.895-5.27l1.86.448.09 1.973 1.062-1.705 1.95.537v-.09l-1.24-1.523 1.062-1.616h-.09l-1.77.718-1.24-1.525.087 2.062-1.772.717zm-4.34-3.946l1.95.18.442 1.882.797-1.793 1.95.18-1.507-1.345.797-1.793-1.683.986-1.505-1.256.443 1.974-1.683.986zm-3.19-3.228l.8 1.793.44-1.973 1.95-.18L52.352 6.1l.354-1.884L51.29 5.56l-1.684-.986.797 1.793-1.506 1.345 1.95-.178zm-4.605-.808V4.663l1.77-.628-1.86-.627V1.525L45.09 3.14l-1.862-.63v.09l1.15 1.526-1.15 1.613v.09l1.86-.72 1.152 1.616zm20.374 32.912l1.86-.45.975 1.706.176-1.975 1.86-.537h.088l-1.86-.718.177-1.973-1.24 1.435-1.77-.718.974 1.704-1.33 1.524h.09zM37.116 4.754v.09L38.8 3.766l1.416 1.344-.443-1.97 1.772-.988-1.95-.18L39.153 0l-.798 1.795-1.948-.18 1.506 1.344-.797 1.794zM1.86 40.266l1.15-1.615 1.86.63h.09l-1.24-1.615 1.15-1.613-1.86.627-1.24-1.526.09 1.973-1.86.628 1.86.538v1.973zm67.323-10.942l-.974 1.705-1.95-.45 1.328 1.525-1.063 1.704h.09l1.77-.808 1.24 1.524-.176-1.973 1.77-.807-1.86-.448-.177-1.974zm-4.607-4.483l1.594 1.167-.62 1.883 1.595-1.166 1.506 1.166h.09l-.62-1.883 1.506-1.166h-1.95l-.53-1.883-.62 1.884h-1.95zm-.974-4.752l-.265 1.973 1.33-1.434 1.77.807-.886-1.704 1.33-1.435-1.95.358-.885-1.704-.267 1.973-1.947.358 1.772.808zM5.05 21.344l1.86-.808 1.328 1.435L7.972 20l1.77-.806-1.946-.36-.267-1.972-.976 1.704-1.86-.36 1.33 1.436-.975 1.704zM1.86 33.718l1.417-1.434 1.683.897h.09l-.976-1.703 1.417-1.435-1.946.36-.887-1.795H2.57L2.3 30.58l-1.86.27 1.684.896-.266 1.972zM31.003 5.11l1.507-1.343 1.594.987h.088l-.796-1.795 1.416-1.346-1.95.18L32.067 0l-.354 1.883-1.95.18v.09l1.684.986-.443 1.97zM2.923 27.44l1.594-1.075L6.11 27.53l-.62-1.882 1.596-1.076h-1.95l-.53-1.973-.71 1.882-1.858-.09v.09l1.506 1.166-.622 1.793zm7.352-12.194l1.063 1.703v-.09l.09-1.884 1.86-.448v-.09l-1.773-.717.09-1.972-1.24 1.525-1.773-.808v.09l.975 1.614-1.24 1.524 1.948-.448zm15.148-8.61l1.15-1.614 1.862.717v-.09l-1.152-1.615 1.152-1.613-1.86.627-1.063-1.615h-.09v1.973l-1.858.538 1.86.717v1.974zm-5.847.628l.356 1.973.884-1.793 1.86.268-1.417-1.345.885-1.793-1.77.896-1.33-1.344L19.4 6.1l-1.773.895 1.95.27zm-5.05 3.677l.798 1.794.443-1.883 1.95-.178-1.684-1.076.443-1.884-1.506 1.256-1.683-.987.797 1.796-1.506 1.255 1.95-.09z" style="fill-rule: evenodd;"></path></svg>