<?xml version="1.0" encoding="UTF-8"?>
<svg class="_2rWrR _3kXwb _1qHew" preserveAspectRatio="xMidYMid meet" viewBox="0 0 33 32" style="fill: currentcolor;"><path fill="currentColor" fill-rule="evenodd" d="M175.141565,13.4170504 L174.632811,13.4170504 L174.632811,15.493977 L175.141565,15.493977 C175.705684,15.493977 176.168052,15.0288824 176.168052,14.4603507 C176.168052,13.882145 175.705684,13.4170504 175.141565,13.4170504 L175.141565,13.4170504 Z M180.339089,14.8331706 C179.904403,14.8331706 179.534808,15.4284917 179.534808,16.1644575 C179.534808,16.9011674 179.904403,17.4972327 180.339089,17.4972327 C180.784249,17.4972327 181.153844,16.9011674 181.153844,16.1644575 C181.153844,15.4284917 180.784249,14.8331706 180.339089,14.8331706 L180.339089,14.8331706 Z M193.186631,18.5963444 L192.834992,18.5963444 L192.095054,17.9541417 C191.789801,18.3076136 191.16134,18.6990373 190.476018,18.6990373 C189.032802,18.6990373 188.460453,17.813497 188.460453,16.8542858 L188.460453,13.9647458 L186.376805,16.0625087 L188.892895,18.5963444 L186.820469,18.5963444 L184.840816,16.6213664 L184.840816,18.5963444 L183.194846,18.5963444 L183.194846,13.7273615 L184.840816,13.7273615 L184.840816,15.6435515 L186.737422,13.7340589 L190.107171,13.7340589 L190.107171,16.398121 C190.107171,17.1712944 190.292717,17.4131436 190.698224,17.4131436 C191.096998,17.4131436 191.355116,17.2077578 191.540661,16.8825636 L191.540661,13.7340589 L193.186631,13.7340589 L193.186631,18.5963444 Z M180.339089,18.6990373 C178.942259,18.6990373 177.814022,17.5716478 177.814022,16.1644575 C177.814022,14.7587554 178.942259,13.631366 180.339089,13.631366 C181.736667,13.631366 182.873882,14.7587554 182.873882,16.1644575 C182.873882,17.5716478 181.736667,18.6990373 180.339089,18.6990373 L180.339089,18.6990373 Z M176.614708,18.6008093 L175.131091,16.5283475 L174.632811,16.5283475 L174.632811,18.5963444 L172.986093,18.5963444 L172.986093,12.383424 L175.344319,12.383424 C176.704488,12.383424 177.814022,13.3143575 177.814022,14.4603507 C177.814022,15.1591089 177.388314,15.7827078 176.741148,16.1644575 L178.482884,18.6008093 L176.614708,18.6008093 Z M198.450742,3.96781545 C198.449994,3.96781545 198.449994,3.9670713 198.449994,3.9670713 L198.449994,3.96632715 C198.434282,3.83386819 198.423808,3.75349984 198.423808,3.75349984 L198.423808,3.8398214 C198.170927,2.23766336 196.907271,0.987488954 195.294969,0.744895586 L195.398964,0.744895586 C195.398964,0.744895586 195.307688,0.734477466 195.15581,0.717361983 C195.15581,0.717361983 195.155061,0.716617832 195.154313,0.716617832 L195.153565,0.716617832 C193.958741,0.582670573 188.441749,0 183.086362,0 C177.732471,0 172.216976,0.582670573 171.020655,0.716617832 L171.018411,0.716617832 C171.017663,0.716617832 171.017663,0.717361983 171.016914,0.717361983 C170.865036,0.734477466 170.774508,0.744895586 170.774508,0.744895586 L170.877755,0.744895586 C169.266201,0.987488954 168.001797,2.23766336 167.748916,3.8398214 L167.748916,3.75349984 C167.748916,3.75349984 167.738442,3.83386819 167.72273,3.96632715 C167.72273,3.96632715 167.721982,3.96632715 167.721982,3.9670713 L167.721982,3.96781545 C167.591801,5.04013767 167,10.2075252 167,16 C167,21.8028929 167.593297,26.9769778 167.72273,28.0366495 L167.72273,28.0373936 L167.72273,28.0381378 C167.738442,28.166876 167.748916,28.245756 167.748916,28.245756 L167.748916,28.1624111 C167.998056,29.7481978 169.238519,30.9946514 170.832865,31.2551044 L170.774508,31.2551044 C170.774508,31.2551044 170.836606,31.2632901 170.931623,31.2766848 L170.931623,31.2766848 C171.804735,31.395749 176.563084,32 183.086362,32 C189.60964,32 194.367989,31.395749 195.241101,31.2766848 L195.241849,31.2766848 L195.398964,31.2551044 L195.339859,31.2551044 C196.934205,30.9946514 198.174668,29.7481978 198.423808,28.1624111 L198.423808,28.245756 C198.423808,28.245756 198.434282,28.166876 198.449245,28.0381378 C198.449245,28.0381378 198.449994,28.0381378 198.449994,28.0373936 L198.449994,28.0366495 C198.579427,26.977722 199.172724,21.803637 199.172724,16 C199.172724,10.2082694 198.581671,5.04237012 198.450742,3.96781545 L198.450742,3.96781545 Z" transform="translate(-167)"></path></svg>