<?xml version="1.0" encoding="UTF-8"?>
<svg class="_2rWrR _28r7S" preserveAspectRatio="xMidYMid meet" viewBox="0 0 79 25" style="fill: currentcolor;"><path d="M41.028 7.066c-1.513-1.432-3.45-2.29-5.56-2.29-3.407 0-6.358 2.24-7.81 5.51V5.153h-3.78V0h-7.07v16.18c-.995-2.595-4.014-3.774-7.34-4.404-2.093-.396-2.82-.334-2.864-1.332-.04-.925 1.12-1.09 2.382-1.09 1.527 0 3.954 1.408 3.954 1.408l2.587-4.13c-2.036-1.286-3.784-2.09-7.754-2.09C3.803 4.542 0 6.992 0 10.696c0 3.703 2.75 5.71 7.28 6.43 2.384.38 3.413.854 3.36 1.8-.038.668-.6 1.462-2.24 1.39-3.462-.155-5.498-2.47-5.498-2.47l-2.85 4.27s3.002 2.777 7.94 2.777c4.993 0 7.803-1.613 8.817-4.558.038-.113.074-.228.106-.345.247 1.222 1.035 3.694 3.43 4.598.57.215 1.228.342 1.993.342 3.373 0 5.376-.342 5.376-.342v-4.225c-3.527 0-3.82-2.346-3.838-2.92v-6.21h3.41c-.38 1.133-.592 2.365-.592 3.654 0 5.585 3.927 10.113 8.772 10.113 2.11 0 4.047-.86 5.56-2.292v1.88h7.07v-5.05s-.68-3.564-3.882-3.945c-.17-.02-.345-.028-.53-.02H41.03v.238c-.396 1.79-1.975 3.127-3.865 3.127-2.19 0-3.962-1.792-3.962-4.003 0-2.21 1.774-4.004 3.963-4.004 1.89 0 3.47 1.337 3.865 3.126v.26h2.66c.186.008.364 0 .536-.02 3.195-.39 3.873-3.946 3.873-3.946V5.152h-7.07v1.914zm28.526 11.44l8.44-13.354H65.588l-2.74 4.283V5.152s-2.99-.352-6.175 2.864V5.152h-7.068v5.198s.752 4.11 4.41 3.966h2.658v-.22c2.333-2.355 4.56-2.796 5.586-2.864h4.825l-8.44 13.356h15.345l3.89-6.08h-8.324zm-19.95 1.033v5.048h7.068v-9.016h-2.658c-3.658-.143-4.41 3.967-4.41 3.967zm27.978 3.76H77.3v-.44h.265c.114 0 .192.007.234.024.04.017.074.043.098.077.024.035.036.074.036.117 0 .067-.025.12-.074.162-.05.04-.142.06-.278.06zm.31.247c-.032-.03-.073-.055-.124-.077.125-.01.225-.054.3-.133.076-.08.114-.173.114-.28 0-.075-.023-.147-.068-.214-.045-.067-.106-.115-.182-.14-.076-.03-.2-.042-.37-.042h-.497v1.464h.234v-.622h.137c.08 0 .144.017.186.05.062.047.144.16.245.34l.128.232h.286l-.177-.287c-.084-.135-.156-.232-.214-.29zm.737.388c-.1.18-.238.32-.416.42-.18.1-.365.15-.56.15-.192 0-.378-.05-.556-.15-.18-.1-.317-.24-.417-.42-.098-.18-.148-.367-.148-.562 0-.198.05-.387.152-.57.1-.18.24-.32.42-.42.18-.097.363-.146.55-.146.19 0 .373.05.553.147.18.098.32.238.42.42.1.182.15.37.15.57 0 .194-.05.382-.148.56zm.19-1.244c-.12-.217-.288-.385-.503-.502-.215-.117-.435-.176-.662-.176-.225 0-.446.06-.66.176-.216.117-.384.285-.505.503-.12.22-.18.446-.18.683 0 .234.06.46.178.675.12.216.284.384.498.504.214.12.437.18.67.18.233 0 .456-.06.67-.18.213-.12.378-.288.497-.504.118-.216.177-.44.177-.675 0-.237-.06-.464-.18-.682z" fill="#FFF" style="fill-rule: evenodd;"></path></svg>