<?xml version="1.0" encoding="UTF-8"?>
<svg class="_2rWrR _3kXwb _3Xpfh" preserveAspectRatio="xMidYMid meet" viewBox="0 0 68 22" style="fill: currentcolor;"><path fill="currentColor" fill-rule="evenodd" d="M771.352856,24.7827821 C769.052785,24.7827821 766.855334,24.29522 764.838645,23.4101038 L764.128841,24.634481 C766.362221,25.5897275 768.800166,26.116375 771.352856,26.116375 C773.905322,26.116375 776.344165,25.5897275 778.579565,24.634481 L777.865495,23.4112205 C775.848582,24.29589 773.650906,24.7827821 771.352856,24.7827821 L771.352856,24.7827821 Z M754.897345,7.79962939 L758.543821,7.79962939 L758.543821,5.00603031 L754.897345,5.00603031 L754.897345,7.79962939 Z M754.897345,20.672341 L758.543821,20.672341 L758.543821,8.59808772 L754.897345,8.59808772 L754.897345,20.672341 Z M771.349263,16.1980709 L765.274722,5.00603031 L761.170837,5.00603031 L769.830628,20.672341 L772.888557,20.672341 L781.547225,5.00603031 L777.424028,5.00603031 L771.349263,16.1980709 Z M734,7.79962939 L741.234793,7.79962939 L741.234793,20.672341 L744.896763,20.672341 L744.896763,7.79962939 L752.162769,7.79962939 L752.162769,5.00603031 L734,5.00603031 L734,7.79962939 Z M787.361287,17.9017464 L798.24817,17.9017464 L798.24817,7.80342626 L787.361287,7.80342626 L787.361287,17.9017464 Z M798.049442,5 L787.558218,5 C784.547893,5 783.691682,5.88779632 783.691682,8.73544488 L783.691682,16.9806717 C783.691682,19.9013541 784.547893,20.6779246 787.558218,20.6779246 L798.049442,20.6779246 C801.022716,20.6779246 801.915753,19.8642788 801.915753,16.9806717 L801.915753,8.73544488 C801.915753,5.88779632 801.06044,5 798.049442,5 L798.049442,5 Z" transform="translate(-734 -5)"></path></svg>