<?xml version="1.0" encoding="UTF-8"?>
<svg class="_2rWrR" preserveAspectRatio="xMidYMid meet" viewBox="0 0 20 17" style="fill: currentcolor;"><path d="M6 17c7.837 0 11.965-6.156 12-11-.035-.67-.035-.844 0-1 .756-.59 1.45-1.297 2-2-.75.218-1.543.433-2 1 .5-.978 1.14-1.77 1-3-.358.763-1.24 1.095-2 1C15.29.647 12.69.568 11 2c-1.03 1.084-1.48 2.555-1 4-3.45-.204-6.524-1.74-9-4C.303 3.584.86 5.945 3 7c-.99.11-1.63-.062-2 0-.2 1.6 1.178 3.255 3 4-.512-.202-1.146-.178-2 0 .777 1.35 2.318 2.478 4 3-1.38.635-3.175 1.246-5 1-.35.244-.675.223-1 0 1.877 1.37 4.06 2 6 2" fill="currentColor" fill-rule="evenodd"></path></svg>