<?xml version="1.0" encoding="UTF-8"?>
<svg class="_2rWrR _3kXwb _3Xpfh" preserveAspectRatio="xMidYMid meet" viewBox="0 0 68 23" style="fill: currentcolor;"><path fill="currentColor" fill-rule="evenodd" d="M15.176 8.043v9.83h2.416v-9.83h3.097V5.879h-3.097v-.893c0-2.046 1.22-2.728 2.416-2.728.305 0 .587.047.821.117l.493-2.14C21.017.118 20.524 0 19.82 0c-3.003 0-4.645 2.234-4.645 4.939v.94H13.91l-1.525 2.164h2.791zm33.496 5.574c0 2.61 1.595 4.468 4.457 4.468.703 0 1.29-.094 1.759-.235l-.493-2.117a4.95 4.95 0 0 1-1.102.118c-1.173 0-2.205-.635-2.205-2.281V8.043h3.378l-.985-2.164h-2.393V1.06l-2.416 1.058v3.762h-2.557v2.164h2.557v5.574zM27.913 5.879v11.994h2.416v-8.23c.75-1.06 1.83-1.718 3.167-1.718 1.782 0 3.002 1.13 3.002 3.387v5.409c0 .682.47 1.152 1.126 1.152h1.29V10.89c0-3.105-1.97-5.268-4.832-5.268-1.525 0-2.791.54-3.753 1.434V5.88h-2.416zm31.338 16.227L68 5.88h-1.314c-.797 0-1.407.236-1.735.847l-3.448 6.42-2.98-6.42c-.304-.635-.938-.847-1.735-.847H55.52l4.598 9.784L56.108 23h1.313c.821 0 1.478-.259 1.83-.894zm-36.64-4.233h2.417V5.88h-2.416v11.994zm19.165 0h2.416V5.88h-2.416v11.994zM7.6 11.618l4.269-5.739h-1.783c-.797 0-1.313.283-1.736.847L6.1 9.76 3.917 6.726c-.422-.564-.938-.847-1.736-.847H.4l4.222 5.739L0 17.873h1.689c.797 0 1.313-.282 1.736-.846l2.674-3.552 6.263 8.678c.398.565.938.847 1.735.847h1.83L7.6 11.618z"></path></svg>